<svg height="512" viewBox="0 0 61 60" width="512" xmlns="http://www.w3.org/2000/svg"><g id="Page-1" fill="none" fill-rule="evenodd"><g id="008---Steak" fill-rule="nonzero"><path id="Shape" d="m58.88 28.54c-.97-12.67-7.82-24.47-18.59-26.91-9.44-2.14-19.36 2.19-27.71 7.85-.13.09-.25.17-.37.26-.09.06-.17.12-.26.19-.21.15-.41.31-.61.47l-.51.42c-.7253567.6520434-1.39749251 1.3609627-2.01 2.12-1.68289011 2.0220153-2.66838512 4.5330987-2.81 7.16-.15 4.35 2.43 8.22 5.49 10.51s6.6 3.38 9.92 5.04c3.8291601 1.8604452 7.1892446 4.5608183 9.83 7.9 2.15 2.75 3.86 6.1 6.48 8.2 3.2665202 2.5601719 7.7410411 2.9373045 11.39.96 2.2141207-1.2102425 4.1014636-2.9397349 5.5-5.04 1.0729726-1.5637255 1.9432521-3.2572424 2.59-5.04 1.5446435-4.5262139 2.1137824-9.3281104 1.67-14.09zm-5.42 12.71c-.5280071 1.4612861-1.2404343 2.849175-2.12 4.13-1.0307487 1.5672446-2.4232173 2.8636808-4.06 3.78-.9950875.5172328-2.098548.7913844-3.22.8-1.3914353.0091425-2.7437005-.460443-3.83-1.33-1.4260551-1.330089-2.6611115-2.8511939-3.67-4.52-.68-1-1.38-2.03-2.16-3.03-3.0077841-3.8038371-6.8320179-6.8830459-11.19-9.01-1.17-.58-2.33-1.09-3.45-1.58-2.0669117-.8012347-4.0361863-1.8345168-5.87-3.08-1.94-1.46-3.99-4.11-3.88-7.17.1129324-1.7575294.7857991-3.4326872 1.92-4.78.4632331-.5729155.9679244-1.11103 1.51-1.61l.42-.34c.34-.27.65-.51.96-.71 7.56-5.13 14.42-7.73 20.4-7.73 1.4092798-.00023844 2.8143389.15401626 4.19.46 8.21 1.86 14.57 11.45 15.48 23.32.3986902 4.1878845-.0885373 8.4127944-1.43 12.4z" fill="#ffe0b2"/><path id="Shape" d="m58.88 28.54c-.97-12.67-7.82-24.47-18.59-26.91-2.1292815-.46951529-4.3139281-.63782397-6.49-.5 1.1746321.075015 2.3415555.24219601 3.49.5 10.77 2.44 17.62 14.24 18.59 26.91.4437824 4.7618896-.1253565 9.5637861-1.67 14.09-.6467479 1.7827576-1.5170274 3.4762745-2.59 5.04-1.3985364 2.1002651-3.2858793 3.8297575-5.5 5.04-1.1133209.57809-2.3162068.9641765-3.558 1.142 2.2516204.3135621 4.54491-.0857879 6.558-1.142 2.2141207-1.2102425 4.1014636-2.9397349 5.5-5.04 1.0729726-1.5637255 1.9432521-3.2572424 2.59-5.04 1.5446435-4.5262139 2.1137824-9.3281104 1.67-14.09z" fill="#dfc49c"/><path id="Shape" d="m54.89 28.85c-.91-11.87-7.27-21.46-15.48-23.32-1.3756611-.30598374-2.7807202-.46023844-4.19-.46-5.98 0-12.84 2.6-20.4 7.73-.31.2-.62.44-.96.71l-.42.34c-.5420756.49897-1.0467669 1.0370845-1.51 1.61-1.1342009 1.3473128-1.8070676 3.0224706-1.92 4.78-.11 3.06 1.94 5.71 3.88 7.17 1.8338137 1.2454832 3.8030883 2.2787653 5.87 3.08 1.12.49 2.28 1 3.45 1.58 4.3579821 2.1269541 8.1822159 5.2061629 11.19 9.01.78 1 1.48 2.03 2.16 3.03 1.0088885 1.6688061 2.2439449 3.189911 3.67 4.52 1.0862995.869557 2.4385647 1.3391425 3.83 1.33 1.121452-.0086156 2.2249125-.2827672 3.22-.8 1.6367827-.9163192 3.0292513-2.2127554 4.06-3.78.8795657-1.280825 1.5919929-2.6687139 2.12-4.13 1.3414627-3.9872056 1.8286902-8.2121155 1.43-12.4zm-9.11-7.94c-1.08 3.7-5.76 5.16-10.46 3.25s-7.64-6.44-6.57-10.14 5.76-5.16 10.46-3.26 7.64 6.45 6.57 10.15z" fill="#f44335"/><path id="Shape" d="m54.62 47.67c-1.35 2.38-5.78 6.55-8.15 8.69-1.3184546 1.2477028-2.9608064 2.1000626-4.74 2.46-2.9694354.5680315-6.0387287-.191984-8.4-2.08-2.67-2.14-4.41-5.57-6.6-8.39-2.6963592-3.4036072-6.1199539-6.1609335-10.02-8.07-3.38-1.69-6.99-2.82-10.11-5.15s-5.75-6.3-5.59-10.74c.1457038-2.6831285 1.14813345-5.2487876 2.86-7.32 2.46298517-2.6286147 5.16828629-5.0191902 8.08-7.14-.21.15-.41.31-.61.47l-.51.42c-.7253567.6520434-1.39749251 1.3609627-2.01 2.12-1.68289011 2.0220153-2.66838512 4.5330987-2.81 7.16-.15 4.35 2.43 8.22 5.49 10.51s6.6 3.38 9.92 5.04c3.8291601 1.8604452 7.1892446 4.5608183 9.83 7.9 2.15 2.75 3.86 6.1 6.48 8.2 3.2665202 2.5601719 7.7410411 2.9373045 11.39.96 2.2141207-1.2102425 4.1014636-2.9397349 5.5-5.04z" fill="#dfc49c"/><path id="Shape" d="m39.21 10.76c-4.7-1.9-9.38-.44-10.46 3.26s1.87 8.24 6.57 10.14 9.38.45 10.46-3.25-1.87-8.24-6.57-10.15zm2.78 8.62c-.17.59-2.45 1.5-5.37.32-3.16-1.28-4.21-3.72-4.08-4.15.17-.6 2.45-1.51 5.37-.32 1.4457284.5509141 2.6904705 1.5271824 3.57 2.8.3057366.3863071.4839451.8580354.51 1.35z" fill="#ffe0b2"/><path id="Shape" d="m41.99 19.38c-.17.59-2.45 1.5-5.37.32-3.16-1.28-4.21-3.72-4.08-4.15.17-.6 2.45-1.51 5.37-.32 1.4457284.5509141 2.6904705 1.5271824 3.57 2.8.3057366.3863071.4839451.8580354.51 1.35z" fill="#f44335"/><g fill="#000"><path id="Shape" d="m11.15 14.829c-1.26808136 1.5189783-2.01815607 3.4030988-2.141 5.378-.119 3.444 2.136 6.39 4.286 8 1.8918218 1.2952727 3.9261522 2.368975 6.063 3.2 1.113.486 2.263.989 3.4 1.56 4.2309519 2.0546106 7.9419962 5.0401978 10.855 8.733.762.974 1.453 1.99 2.123 2.972 1.0612872 1.7534006 2.3640635 3.3487125 3.87 4.739 1.2619561 1.0115676 2.8336922 1.5578439 4.451 1.547 1.2826416-.0068269 2.5450645-.320204 3.682-.914 1.7800972-.9886518 3.2958505-2.3915555 4.419-4.09.9308996-1.3520777 1.6843902-2.8180572 2.242-4.362 1.394348-4.1202977 1.9034409-8.4884783 1.494-12.819-.942-12.3-7.629-22.259-16.262-24.218-7.169-1.624-15.742.89-25.368 7.415-.325.219-.66.468-1.028.766l-.466.38c-.5823788.5293777-1.1239207 1.1020081-1.62 1.713zm2.919-.2.421-.341c.318-.258.606-.473.889-.664 7.394-5.012 14.068-7.554 19.837-7.554 1.3346326-.00328543 2.6654871.14194138 3.968.433 7.787 1.769 13.836 10.989 14.716 22.421.3860122 4.0448348-.0852395 8.1256089-1.383 11.976-.4970607 1.3833493-1.1691918 2.6973656-2 3.91-.9390993 1.4314061-2.2079513 2.6165825-3.7 3.456-1.8979641 1.0390717-4.2275909.8757399-5.962-.418-1.3434217-1.2714924-2.5098626-2.7177714-3.468-4.3-.688-1.009-1.4-2.052-2.2-3.075-3.094869-3.9280338-7.0382993-7.1049994-11.535-9.293-1.186-.6-2.361-1.108-3.5-1.6-1.9931435-.7743412-3.8927734-1.7706155-5.663-2.97-1.746-1.306-3.578-3.654-3.486-6.33.1074254-1.5414369.7028508-3.0086351 1.7-4.189.4192224-.5192382.8757675-1.0072001 1.366-1.46z"/><path id="Shape" d="m6 35.927c2.18223883 1.522674 4.5352587 2.7845988 7.011 3.76 1.075.471 2.187.958 3.247 1.49 3.7706722 1.835082 7.0790456 4.4967519 9.679 7.787.69.888 1.354 1.867 2 2.813 1.2975849 2.1371517 2.9024224 4.0718518 4.763 5.742 2.0161983 1.6128755 4.5230685 2.4882513 7.105 2.481.7043253-.0002576 1.4071855-.0641844 2.1-.191 1.9606063-.3974887 3.7720734-1.3323053 5.232-2.7 2.515-2.271 6.946-6.454 8.357-8.943v-.009c1.0977799-1.6079235 1.9881541-3.3480171 2.65-5.179 1.5937332-4.6570238 2.1829976-9.598802 1.729-14.5-1.087-14.266-8.873-25.443-19.361-27.824-8.3-1.883-17.884.81-28.493 8-.116.078-.233.165-.349.248-.0061606.00189735-.0121762.00423676-.018.007-3.09627019 2.2206949-5.96404551 4.7437744-8.561 7.532-1.85184781 2.239838-2.93290407 5.0166413-3.083 7.919-.176 5.082 2.98 9.307 5.992 11.567zm34.068-33.327c11.125 2.528 16.963 14.889 17.815 26.019.432475 4.6177122-.1168867 9.2746769-1.612 13.665-.6138603 1.7046001-1.444335 3.3232023-2.471 4.816-1.3083411 1.9642068-3.071649 3.5834311-5.14 4.72-3.2932743 1.8058725-7.3464237 1.4721763-10.3-.848-1.6691704-1.5072428-3.1099545-3.2495236-4.277-5.172-.651-.956-1.325-1.945-2.043-2.863-2.7308311-3.4581968-6.2081845-6.2542323-10.172-8.179-1.1-.549-2.222-1.041-3.311-1.516-2.2786353-.8890717-4.4456462-2.0412086-6.457-3.433-2.556-1.909-5.236-5.458-5.091-9.672.13059693-2.4131398 1.03967112-4.7189814 2.591-6.572.5695075-.7038283 1.1923473-1.3627747 1.863-1.971l.511-.413c.407-.33.788-.614 1.165-.868 8.085-5.481 15.487-8.239 22.078-8.239 1.6315487-.00598132 3.2586528.17044761 4.851.526zm-35.468 15.149c.012-.013.4-.43 1.037-1.071-.37125655 1.0943055-.58309457 2.2363448-.629 3.391-.169 4.983 2.932 9.131 5.892 11.342 2.1352791 1.4829172 4.4361391 2.7118772 6.856 3.662 1.065.465 2.167.946 3.216 1.472 3.6971497 1.7914931 6.9411143 4.3961687 9.489 7.619.68.869 1.335 1.83 1.968 2.76 1.2739514 2.088003 2.8477562 3.9775121 4.671 5.608 1.9837537 1.5754606 4.4457872 2.4267125 6.979 2.413.954124-.0004539 1.9046918-.1162949 2.831-.345-.364.335-.727.671-1.112 1.019-1.1834715 1.1193274-2.6544022 1.8881994-4.249 2.221-2.6864689.5250699-5.4677157-.1625568-7.6-1.879-1.7046105-1.5470973-3.1744189-3.3345837-4.363-5.306-.66-.972-1.342-1.978-2.07-2.917-2.7836804-3.5259006-6.3260786-6.3792333-10.364-8.348-1.105-.555-2.242-1.053-3.341-1.534-2.3337293-.914537-4.5524723-2.0989182-6.611-3.529-2.609-1.957-5.344-5.585-5.195-9.9.13046164-2.4458304 1.03975834-4.785824 2.595-6.678z"/><path id="Shape" d="m34.943 25.09c1.4228182.5881154 2.9454794.8970611 4.485.91 1.3408038.0153607 2.66767-.2731925 3.881-.844 1.6585671-.7710004 2.9070151-2.2160544 3.429-3.969 1.213-4.172-1.995-9.265-7.151-11.352-2.6554699-1.19417355-5.6901921-1.21920593-8.365-.069-1.6587894.770984-2.9075579 2.2159875-3.43 3.969-1.213 4.175 1.995 9.265 7.151 11.355zm-5.231-10.79c.3613663-1.2143085 1.2329457-2.2114422 2.388-2.732.9416086-.4346936 1.9690307-.6517306 3.006-.635 1.2822954.0119288 2.5504521.2692261 3.736.758 4.232 1.714 6.916 5.725 5.981 8.941-.3607993 1.21175-1.229947 2.2071467-2.382 2.728-2.1692003.8866524-4.6075791.8421736-6.743-.123-4.237-1.715-6.921-5.725-5.986-8.937z"/><path id="Shape" d="m36.24 20.624c1.0106941.4209525 2.0931954.6426819 3.188.653.8340098.0172106 1.6614833-.1504697 2.423-.491.5125269-.2033991.9145627-.6148861 1.106-1.132.0789202-.7773334-.1485399-1.5547876-.634-2.167-.9954391-1.4416809-2.4002504-2.5518058-4.033-3.187-1.7702-.8177402-3.7978305-.87591-5.612-.161-.509941.2026097-.909813.6122968-1.1 1.127-.32 1.096 1.209 3.96 4.662 5.358zm1.3-4.466c1.2507683.4788359 2.3301668 1.3200703 3.1 2.416.0953221.1447641.1789216.2969152.25.455-1.2863507.4061563-2.6783627.3140694-3.9-.258-1.4304776-.5150592-2.6226308-1.5364475-3.351-2.871 1.2863268-.4063541 2.6784124-.3142622 3.9.258z"/></g></g></g></svg>